
<svg fill="#000000" height="800px" width="800px" version="1.1" id="Layer_1" xmlns="http://www.w3.org/2000/svg" xmlns:xlink="http://www.w3.org/1999/xlink" 
	 viewBox="0 0 512.001 512.001" xml:space="preserve">
<g>
	<g>
		<path d="M109.423,107.243c-11.412,0-20.669,9.318-20.669,20.814c0,11.495,9.258,20.814,20.669,20.814
			c11.398,0,20.655-9.319,20.655-20.814C130.078,116.561,120.821,107.243,109.423,107.243z"/>
	</g>
</g>
<g>
	<g>
		<path d="M402.591,107.243c-11.412,0-20.669,9.318-20.669,20.814c0,11.495,9.257,20.814,20.669,20.814
			c11.398,0,20.655-9.319,20.655-20.814C423.246,116.561,413.989,107.243,402.591,107.243z"/>
	</g>
</g>
<g>
	<g>
		<path d="M477.795,175.055c8.623-13.628,13.634-29.737,13.634-47c0-48.772-39.854-88.451-88.844-88.451
			c-32.831,0-61.538,17.836-76.918,44.272c-22.538-4.895-45.866-7.381-69.666-7.381c-23.737,0-47.102,2.478-69.67,7.375
			c-15.38-26.434-44.085-44.267-76.915-44.267c-48.989,0-88.844,39.679-88.844,88.451c0,17.262,5.011,33.373,13.634,47
			C13.417,202.728,1.727,233.776,0,266.063c27.426,21.956,56.876,37.243,92.182,47.882c43.349,13.064,96.935,19.415,163.819,19.415
			c66.883,0,120.469-6.35,163.818-19.415c35.304-10.639,64.754-25.925,92.181-47.881
			C510.274,233.78,498.585,202.729,477.795,175.055z M109.416,183.086c-30.561,0-55.422-24.686-55.422-55.031
			c0-30.344,24.862-55.03,55.422-55.03c30.561,0,55.422,24.686,55.422,55.03C164.838,158.4,139.976,183.086,109.416,183.086z
			 M219.973,292.28c-9.757,0-17.697-7.984-17.697-17.834c0-9.85,7.94-17.828,17.697-17.828c9.769,0,17.708,7.978,17.708,17.828
			C237.681,284.296,229.742,292.28,219.973,292.28z M291.894,292.414c-9.852,0-17.843-8.045-17.843-17.967
			c0-9.923,7.991-17.967,17.843-17.967c9.839,0,17.83,8.043,17.83,17.967S301.734,292.414,291.894,292.414z M402.584,183.086
			c-30.561,0-55.422-24.686-55.422-55.031c0-30.344,24.861-55.03,55.422-55.03c30.561,0,55.422,24.686,55.422,55.03
			C458.006,158.4,433.145,183.086,402.584,183.086z"/>
	</g>
</g>
<g>
	<g>
		<path d="M429.462,345.945c-46.522,14.021-103.262,20.836-173.461,20.836s-126.94-6.816-173.463-20.836
			c-29.201-8.8-54.85-20.473-78.691-35.916c9.3,40.106,34.307,76.846,72.702,105.899c48.124,36.415,111.854,56.469,179.451,56.469
			s131.327-20.054,179.451-56.469c38.394-29.052,63.401-65.792,72.701-105.897C484.31,325.473,458.661,337.145,429.462,345.945z"/>
	</g>
</g>
</svg>